<svg xmlns="http://www.w3.org/2000/svg" width="36" height="36" viewBox="0 0 36 36"><path d="M12.471 0H23.53C33.609 0 36 2.391 36 12.471V23.53C36 33.609 33.609 36 23.529 36H12.47C2.391 36 0 33.609 0 23.529V12.47C0 2.391 2.391 0 12.471 0zm17.183 12.53c.17-.553 0-.959-.808-.959h-2.673c-.68 0-.993.35-1.163.737 0 0-1.359 3.23-3.284 5.327-.623.607-.906.8-1.246.8-.17 0-.416-.193-.416-.745v-5.16c0-.663-.197-.959-.763-.959h-4.2c-.424 0-.68.308-.68.6 0 .627.963.772 1.062 2.539v3.836c0 .841-.156.994-.496.994-.906 0-3.11-3.244-4.416-6.956-.257-.721-.513-1.013-1.196-1.013H6.702c-.764 0-.916.35-.916.737 0 .69.906 4.113 4.218 8.64 2.209 3.09 5.32 4.766 8.152 4.766 1.698 0 1.908-.372 1.908-1.013v-2.336c0-.745.161-.893.7-.893.396 0 1.075.193 2.66 1.683 1.813 1.767 2.112 2.56 3.13 2.56h2.673c.764 0 1.146-.373.925-1.107-.24-.732-1.106-1.794-2.254-3.053-.623-.718-1.557-1.49-1.84-1.877-.396-.497-.283-.718 0-1.16 0 0 3.256-4.47 3.596-5.989z" fill="#FFF" fill-rule="evenodd"/></svg>